<?xml version="1.0" encoding="UTF-8"?><svg id="a" xmlns="http://www.w3.org/2000/svg" viewBox="0 0 348.05 146.94"><defs><style>.b{fill:none;stroke:#000;stroke-miterlimit:10;}</style></defs><path class="b" d="M70.5,14.41c-1.82,17.11-3.81,34.74-12.18,49.77s-24.88,26.91-41.91,24.45c-2.14-.31-4.37-.9-5.9-2.43-2.39-2.38-2.38-6.22-1.97-9.57,1.47-12.09,6.01-23.79,13.07-33.71,.76-1.07,1.7-2.21,3.01-2.35,1.69-.18,3,1.37,3.96,2.77,7.32,10.64,13.65,21.97,18.86,33.79,5.36,12.16,11,26.29,23.55,30.64,10.96,3.8,23.41-1.93,30.91-10.79s11.12-20.26,14.57-31.34c.99-3.18,1.67-7.33-1.06-9.22-1.87-1.29-4.47-.74-6.46,.35-5.59,3.06-8.54,9.72-8.51,16.09s2.61,12.47,5.87,17.95c5.18,8.72,12.2,16.34,20.45,22.24l27.87-56.74c2.12,17.84,6.4,35.42,12.72,52.24,11.75-17.51,25.25-33.84,40.23-48.69l.3,45.45c11.12,2.53,22.76-3.66,29.95-12.51s10.83-19.98,14.32-30.83c-3.23,13.22-4.62,26.89-4.11,40.49,7.84-.25,14.88-5.34,19.45-11.72s7.06-13.96,9.5-21.42c-.57,18.86-5.4,37.58-14.04,54.35,2.51-17.46,12.88-33.64,27.71-43.19,2.85-1.84,6.62-3.44,9.47-1.59,2.01,1.3,2.74,3.84,3.33,6.17,3.01,11.99,6.01,23.99,9.02,35.98,13.19-2.18,25.67-8.51,35.22-17.87"/><path class="b" d="M252.6,44.09c3.07-.21,6.18,.07,9.16,.84l-4.87-12.61c-1.23-.51-2.6,.12-3.78,.73-2.05,1.07-4.25,2.28-5.19,4.4s.37,5.25,2.68,5.15"/><path class="b" d="M46.42,.03c1.17,18.68,3.96,37.26,4.37,55.98,.41,18.71-1.67,37.89-9.72,54.79S18.32,142.11,.12,146.45"/></svg>